<svg width="60" height="60" viewBox="0 0 60 60" fill="none" xmlns="http://www.w3.org/2000/svg">
<rect width="60" height="60" rx="12" fill="#EBF5F7"/>
<mask id="path-2-inside-1_14_113" fill="white">
<path d="M20.4667 38.2V39.0667H22.2V38.2H20.4667ZM29.1333 38.2V39.0667H30.8667V38.2H29.1333ZM22.2 38.2V37.3332H20.4667V38.2H22.2ZM29.1333 37.3328V38.2H30.8667V37.3328H29.1333ZM25.6667 33.8667C27.5814 33.8667 29.1333 35.4183 29.1333 37.3328H30.8667C30.8667 34.4607 28.5384 32.1333 25.6667 32.1333V33.8667ZM22.2 37.3332C22.2 35.4185 23.752 33.8667 25.6667 33.8667V32.1333C22.7948 32.1333 20.4667 34.4612 20.4667 37.3332H22.2ZM25.6667 23.4667C23.7521 23.4667 22.2 25.0187 22.2 26.9333H23.9333C23.9333 25.976 24.7094 25.2 25.6667 25.2V23.4667ZM29.1333 26.9333C29.1333 25.0187 27.5813 23.4667 25.6667 23.4667V25.2C26.624 25.2 27.4 25.976 27.4 26.9333H29.1333ZM25.6667 30.4C27.5813 30.4 29.1333 28.8479 29.1333 26.9333H27.4C27.4 27.8906 26.624 28.6667 25.6667 28.6667V30.4ZM25.6667 28.6667C24.7094 28.6667 23.9333 27.8906 23.9333 26.9333H22.2C22.2 28.8479 23.7521 30.4 25.6667 30.4V28.6667ZM19.6 21.7333H40.4V20H19.6V21.7333ZM41.2667 22.6V36.4667H43V22.6H41.2667ZM40.4 37.3333H19.6V39.0667H40.4V37.3333ZM18.7333 36.4667V22.6H17V36.4667H18.7333ZM19.6 37.3333C19.1214 37.3333 18.7333 36.9452 18.7333 36.4667H17C17 37.9026 18.1641 39.0667 19.6 39.0667V37.3333ZM41.2667 36.4667C41.2667 36.9452 40.8786 37.3333 40.4 37.3333V39.0667C41.8359 39.0667 43 37.9026 43 36.4667H41.2667ZM40.4 21.7333C40.8786 21.7333 41.2667 22.1214 41.2667 22.6H43C43 21.1641 41.8359 20 40.4 20V21.7333ZM19.6 20C18.1641 20 17 21.1641 17 22.6H18.7333C18.7333 22.1214 19.1214 21.7333 19.6 21.7333V20ZM32.6 26.9333H37.8V25.2H32.6V26.9333ZM32.6 32.1333H37.8V30.4H32.6V32.1333Z"/>
</mask>
<path d="M20.4667 38.2V39.0667H22.2V38.2H20.4667ZM29.1333 38.2V39.0667H30.8667V38.2H29.1333ZM22.2 38.2V37.3332H20.4667V38.2H22.2ZM29.1333 37.3328V38.2H30.8667V37.3328H29.1333ZM25.6667 33.8667C27.5814 33.8667 29.1333 35.4183 29.1333 37.3328H30.8667C30.8667 34.4607 28.5384 32.1333 25.6667 32.1333V33.8667ZM22.2 37.3332C22.2 35.4185 23.752 33.8667 25.6667 33.8667V32.1333C22.7948 32.1333 20.4667 34.4612 20.4667 37.3332H22.2ZM25.6667 23.4667C23.7521 23.4667 22.2 25.0187 22.2 26.9333H23.9333C23.9333 25.976 24.7094 25.2 25.6667 25.2V23.4667ZM29.1333 26.9333C29.1333 25.0187 27.5813 23.4667 25.6667 23.4667V25.2C26.624 25.2 27.4 25.976 27.4 26.9333H29.1333ZM25.6667 30.4C27.5813 30.4 29.1333 28.8479 29.1333 26.9333H27.4C27.4 27.8906 26.624 28.6667 25.6667 28.6667V30.4ZM25.6667 28.6667C24.7094 28.6667 23.9333 27.8906 23.9333 26.9333H22.2C22.2 28.8479 23.7521 30.4 25.6667 30.4V28.6667ZM19.6 21.7333H40.4V20H19.6V21.7333ZM41.2667 22.6V36.4667H43V22.6H41.2667ZM40.4 37.3333H19.6V39.0667H40.4V37.3333ZM18.7333 36.4667V22.6H17V36.4667H18.7333ZM19.6 37.3333C19.1214 37.3333 18.7333 36.9452 18.7333 36.4667H17C17 37.9026 18.1641 39.0667 19.6 39.0667V37.3333ZM41.2667 36.4667C41.2667 36.9452 40.8786 37.3333 40.4 37.3333V39.0667C41.8359 39.0667 43 37.9026 43 36.4667H41.2667ZM40.4 21.7333C40.8786 21.7333 41.2667 22.1214 41.2667 22.6H43C43 21.1641 41.8359 20 40.4 20V21.7333ZM19.6 20C18.1641 20 17 21.1641 17 22.6H18.7333C18.7333 22.1214 19.1214 21.7333 19.6 21.7333V20ZM32.6 26.9333H37.8V25.2H32.6V26.9333ZM32.6 32.1333H37.8V30.4H32.6V32.1333Z" fill="#36C8C3"/>
<path d="M22.2 35.24H20.4667V41.16H22.2V35.24ZM30.8667 35.24H29.1333V41.16H30.8667V35.24ZM22.2 34.3732H20.4667V40.2932H22.2V34.3732ZM30.8667 34.3728H29.1333V40.2928H30.8667V34.3728ZM22.7067 32.1333V33.8667H28.6267V32.1333H22.7067ZM22.2 29.8933H23.9333V23.9733H22.2V29.8933ZM28.6267 25.2V23.4667H22.7067V25.2H28.6267ZM27.4 29.8933H29.1333V23.9733H27.4V29.8933ZM22.7067 28.6667V30.4H28.6267V28.6667H22.7067ZM43.36 21.7333V20H37.44V21.7333H43.36ZM16.64 20V21.7333H22.56V20H16.64ZM41.2667 39.4267H43V33.5067H41.2667V39.4267ZM43 19.64H41.2667V25.56H43V19.64ZM16.64 37.3333V39.0667H22.56V37.3333H16.64ZM43.36 39.0667V37.3333H37.44V39.0667H43.36ZM18.7333 19.64H17V25.56H18.7333V19.64ZM17 39.4267H18.7333V33.5067H17V39.4267ZM20.4667 39.0667H14.5467V44.9867H20.4667V39.0667ZM22.2 39.0667V44.9867H28.12V39.0667H22.2ZM29.1333 39.0667H23.2133V44.9867H29.1333V39.0667ZM30.8667 39.0667V44.9867H36.7867V39.0667H30.8667ZM32.6 26.9333H26.68V32.8533H32.6V26.9333ZM37.8 26.9333V32.8533H43.72V26.9333H37.8ZM37.8 25.2H43.72V19.28H37.8V25.2ZM32.6 25.2V19.28H26.68V25.2H32.6ZM32.6 32.1333H26.68V38.0533H32.6V32.1333ZM37.8 32.1333V38.0533H43.72V32.1333H37.8ZM37.8 30.4H43.72V24.48H37.8V30.4ZM32.6 30.4V24.48H26.68V30.4H32.6ZM14.5467 38.2V39.0667H26.3867V38.2H14.5467ZM20.4667 44.9867H22.2V33.1467H20.4667V44.9867ZM28.12 39.0667V38.2H16.28V39.0667H28.12ZM23.2133 38.2V39.0667H35.0533V38.2H23.2133ZM29.1333 44.9867H30.8667V33.1467H29.1333V44.9867ZM36.7867 39.0667V38.2H24.9467V39.0667H36.7867ZM28.12 38.2V37.3332H16.28V38.2H28.12ZM14.5467 37.3332V38.2H26.3867V37.3332H14.5467ZM23.2133 37.3328V38.2H35.0533V37.3328H23.2133ZM36.7867 38.2V37.3328H24.9467V38.2H36.7867ZM25.6667 39.7867C24.3127 39.7867 23.2133 38.6887 23.2133 37.3328H35.0533C35.0533 32.148 30.8501 27.9467 25.6667 27.9467V39.7867ZM36.7867 37.3328C36.7867 31.1901 31.8069 26.2133 25.6667 26.2133V38.0533C25.2699 38.0533 24.9467 37.7313 24.9467 37.3328H36.7867ZM28.12 37.3332C28.12 38.6884 27.0212 39.7867 25.6667 39.7867V27.9467C20.4829 27.9467 16.28 32.1486 16.28 37.3332H28.12ZM25.6667 26.2133C19.5257 26.2133 14.5467 31.1913 14.5467 37.3332H26.3867C26.3867 37.7311 26.064 38.0533 25.6667 38.0533V26.2133ZM25.6667 17.5467C20.4826 17.5467 16.28 21.7492 16.28 26.9333H28.12C28.12 28.2883 27.0216 29.3867 25.6667 29.3867V17.5467ZM29.8533 26.9333C29.8533 29.2456 27.9789 31.12 25.6667 31.12V19.28C21.4399 19.28 18.0133 22.7065 18.0133 26.9333H29.8533ZM35.0533 26.9333C35.0533 21.7492 30.8508 17.5467 25.6667 17.5467V29.3867C24.3117 29.3867 23.2133 28.2883 23.2133 26.9333H35.0533ZM25.6667 31.12C23.3544 31.12 21.48 29.2456 21.48 26.9333H33.32C33.32 22.7065 29.8935 19.28 25.6667 19.28V31.12ZM25.6667 36.32C30.8508 36.32 35.0533 32.1174 35.0533 26.9333H23.2133C23.2133 25.5784 24.3117 24.48 25.6667 24.48V36.32ZM21.48 26.9333C21.48 24.6211 23.3544 22.7467 25.6667 22.7467V34.5867C29.8935 34.5867 33.32 31.1601 33.32 26.9333H21.48ZM25.6667 22.7467C27.9789 22.7467 29.8533 24.6211 29.8533 26.9333H18.0133C18.0133 31.1601 21.4399 34.5867 25.6667 34.5867V22.7467ZM16.28 26.9333C16.28 32.1174 20.4826 36.32 25.6667 36.32V24.48C27.0216 24.48 28.12 25.5784 28.12 26.9333H16.28ZM19.6 27.6533H40.4V15.8133H19.6V27.6533ZM40.4 14.08H19.6V25.92H40.4V14.08ZM35.3467 22.6V36.4667H47.1867V22.6H35.3467ZM48.92 36.4667V22.6H37.08V36.4667H48.92ZM40.4 31.4133H19.6V43.2533H40.4V31.4133ZM19.6 44.9867H40.4V33.1467H19.6V44.9867ZM24.6533 36.4667V22.6H12.8133V36.4667H24.6533ZM11.08 22.6V36.4667H22.92V22.6H11.08ZM19.6 31.4133C22.3912 31.4133 24.6533 33.676 24.6533 36.4667H12.8133C12.8133 40.2145 15.8515 43.2533 19.6 43.2533V31.4133ZM11.08 36.4667C11.08 41.172 14.8945 44.9867 19.6 44.9867V33.1467C21.4337 33.1467 22.92 34.6331 22.92 36.4667H11.08ZM35.3467 36.4667C35.3467 33.6757 37.609 31.4133 40.4 31.4133V43.2533C44.1481 43.2533 47.1867 40.2148 47.1867 36.4667H35.3467ZM40.4 44.9867C45.1054 44.9867 48.92 41.1721 48.92 36.4667H37.08C37.08 34.633 38.5664 33.1467 40.4 33.1467V44.9867ZM40.4 27.6533C37.6094 27.6533 35.3467 25.3912 35.3467 22.6H47.1867C47.1867 18.8515 44.1478 15.8133 40.4 15.8133V27.6533ZM48.92 22.6C48.92 17.8945 45.1053 14.08 40.4 14.08V25.92C38.5664 25.92 37.08 24.4337 37.08 22.6H48.92ZM19.6 14.08C14.8945 14.08 11.08 17.8945 11.08 22.6H22.92C22.92 24.4336 21.4336 25.92 19.6 25.92V14.08ZM24.6533 22.6C24.6533 25.3909 22.3909 27.6533 19.6 27.6533V15.8133C15.8518 15.8133 12.8133 18.8518 12.8133 22.6H24.6533ZM32.6 32.8533H37.8V21.0133H32.6V32.8533ZM43.72 26.9333V25.2H31.88V26.9333H43.72ZM37.8 19.28H32.6V31.12H37.8V19.28ZM26.68 25.2V26.9333H38.52V25.2H26.68ZM32.6 38.0533H37.8V26.2133H32.6V38.0533ZM43.72 32.1333V30.4H31.88V32.1333H43.72ZM37.8 24.48H32.6V36.32H37.8V24.48ZM26.68 30.4V32.1333H38.52V30.4H26.68Z" fill="#36C8C3" mask="url(#path-2-inside-1_14_113)"/>
</svg>
