<svg width="60" height="60" viewBox="0 0 60 60" fill="none" xmlns="http://www.w3.org/2000/svg">
<rect width="60" height="60" rx="12" fill="#EBF5F7"/>
<path d="M32.7252 43.1351L32.2 42.6784L32.7252 43.1351ZM32.7252 43.1351L32.7657 43.1703L32.7252 43.1351ZM17.8414 32.2952L18.0081 32.3998L17.8414 32.2952ZM17.8414 32.2952L17.8411 32.295L17.8414 32.2952Z" fill="#36C8C3" stroke="#36C8C3" stroke-width="5.92"/>
<mask id="path-3-inside-1_14_109" fill="white">
<path d="M20.2 34.24H21.8V36.08H20.2V34.24ZM23.4 34.24H25V36.08H23.4V34.24ZM20.2 37.92H21.8V39.76H20.2V37.92ZM23.4 37.92H25V39.76H23.4V37.92ZM29.8 30.56H31.4V32.4H29.8V30.56ZM33 30.56H34.6V32.4H33V30.56ZM29.8 34.24H31.4V36.08H29.8V34.24ZM33 34.24H34.6V36.08H33V34.24ZM36.2 30.56H37.8V32.4H36.2V30.56ZM36.2 34.24H37.8V36.08H36.2V34.24ZM29.8 26.88H31.4V28.72H29.8V26.88ZM33 26.88H34.6V28.72H33V26.88ZM36.2 26.88H37.8V28.72H36.2V26.88ZM29.8 23.2H31.4V25.04H29.8V23.2ZM33 23.2H34.6V25.04H33V23.2ZM36.2 23.2H37.8V25.04H36.2V23.2ZM36.2 19.52H37.8V21.36H36.2V19.52Z"/>
</mask>
<path d="M20.2 34.24H21.8V36.08H20.2V34.24ZM23.4 34.24H25V36.08H23.4V34.24ZM20.2 37.92H21.8V39.76H20.2V37.92ZM23.4 37.92H25V39.76H23.4V37.92ZM29.8 30.56H31.4V32.4H29.8V30.56ZM33 30.56H34.6V32.4H33V30.56ZM29.8 34.24H31.4V36.08H29.8V34.24ZM33 34.24H34.6V36.08H33V34.24ZM36.2 30.56H37.8V32.4H36.2V30.56ZM36.2 34.24H37.8V36.08H36.2V34.24ZM29.8 26.88H31.4V28.72H29.8V26.88ZM33 26.88H34.6V28.72H33V26.88ZM36.2 26.88H37.8V28.72H36.2V26.88ZM29.8 23.2H31.4V25.04H29.8V23.2ZM33 23.2H34.6V25.04H33V23.2ZM36.2 23.2H37.8V25.04H36.2V23.2ZM36.2 19.52H37.8V21.36H36.2V19.52Z" fill="#36C8C3"/>
<path d="M20.2 34.24V28.32H14.28V34.24H20.2ZM21.8 34.24H27.72V28.32H21.8V34.24ZM21.8 36.08V42H27.72V36.08H21.8ZM20.2 36.08H14.28V42H20.2V36.08ZM23.4 34.24V28.32H17.48V34.24H23.4ZM25 34.24H30.92V28.32H25V34.24ZM25 36.08V42H30.92V36.08H25ZM23.4 36.08H17.48V42H23.4V36.08ZM20.2 37.92V32H14.28V37.92H20.2ZM21.8 37.92H27.72V32H21.8V37.92ZM21.8 39.76V45.68H27.72V39.76H21.8ZM20.2 39.76H14.28V45.68H20.2V39.76ZM23.4 37.92V32H17.48V37.92H23.4ZM25 37.92H30.92V32H25V37.92ZM25 39.76V45.68H30.92V39.76H25ZM23.4 39.76H17.48V45.68H23.4V39.76ZM29.8 30.56V24.64H23.88V30.56H29.8ZM31.4 30.56H37.32V24.64H31.4V30.56ZM31.4 32.4V38.32H37.32V32.4H31.4ZM29.8 32.4H23.88V38.32H29.8V32.4ZM33 30.56V24.64H27.08V30.56H33ZM34.6 30.56H40.52V24.64H34.6V30.56ZM34.6 32.4V38.32H40.52V32.4H34.6ZM33 32.4H27.08V38.32H33V32.4ZM29.8 34.24V28.32H23.88V34.24H29.8ZM31.4 34.24H37.32V28.32H31.4V34.24ZM31.4 36.08V42H37.32V36.08H31.4ZM29.8 36.08H23.88V42H29.8V36.08ZM33 34.24V28.32H27.08V34.24H33ZM34.6 34.24H40.52V28.32H34.6V34.24ZM34.6 36.08V42H40.52V36.08H34.6ZM33 36.08H27.08V42H33V36.08ZM36.2 30.56V24.64H30.28V30.56H36.2ZM37.8 30.56H43.72V24.64H37.8V30.56ZM37.8 32.4V38.32H43.72V32.4H37.8ZM36.2 32.4H30.28V38.32H36.2V32.4ZM36.2 34.24V28.32H30.28V34.24H36.2ZM37.8 34.24H43.72V28.32H37.8V34.24ZM37.8 36.08V42H43.72V36.08H37.8ZM36.2 36.08H30.28V42H36.2V36.08ZM29.8 26.88V20.96H23.88V26.88H29.8ZM31.4 26.88H37.32V20.96H31.4V26.88ZM31.4 28.72V34.64H37.32V28.72H31.4ZM29.8 28.72H23.88V34.64H29.8V28.72ZM33 26.88V20.96H27.08V26.88H33ZM34.6 26.88H40.52V20.96H34.6V26.88ZM34.6 28.72V34.64H40.52V28.72H34.6ZM33 28.72H27.08V34.64H33V28.72ZM36.2 26.88V20.96H30.28V26.88H36.2ZM37.8 26.88H43.72V20.96H37.8V26.88ZM37.8 28.72V34.64H43.72V28.72H37.8ZM36.2 28.72H30.28V34.64H36.2V28.72ZM29.8 23.2V17.28H23.88V23.2H29.8ZM31.4 23.2H37.32V17.28H31.4V23.2ZM31.4 25.04V30.96H37.32V25.04H31.4ZM29.8 25.04H23.88V30.96H29.8V25.04ZM33 23.2V17.28H27.08V23.2H33ZM34.6 23.2H40.52V17.28H34.6V23.2ZM34.6 25.04V30.96H40.52V25.04H34.6ZM33 25.04H27.08V30.96H33V25.04ZM36.2 23.2V17.28H30.28V23.2H36.2ZM37.8 23.2H43.72V17.28H37.8V23.2ZM37.8 25.04V30.96H43.72V25.04H37.8ZM36.2 25.04H30.28V30.96H36.2V25.04ZM36.2 19.52V13.6H30.28V19.52H36.2ZM37.8 19.52H43.72V13.6H37.8V19.52ZM37.8 21.36V27.28H43.72V21.36H37.8ZM36.2 21.36H30.28V27.28H36.2V21.36ZM20.2 40.16H21.8V28.32H20.2V40.16ZM15.88 34.24V36.08H27.72V34.24H15.88ZM21.8 30.16H20.2V42H21.8V30.16ZM26.12 36.08V34.24H14.28V36.08H26.12ZM23.4 40.16H25V28.32H23.4V40.16ZM19.08 34.24V36.08H30.92V34.24H19.08ZM25 30.16H23.4V42H25V30.16ZM29.32 36.08V34.24H17.48V36.08H29.32ZM20.2 43.84H21.8V32H20.2V43.84ZM15.88 37.92V39.76H27.72V37.92H15.88ZM21.8 33.84H20.2V45.68H21.8V33.84ZM26.12 39.76V37.92H14.28V39.76H26.12ZM23.4 43.84H25V32H23.4V43.84ZM19.08 37.92V39.76H30.92V37.92H19.08ZM25 33.84H23.4V45.68H25V33.84ZM29.32 39.76V37.92H17.48V39.76H29.32ZM29.8 36.48H31.4V24.64H29.8V36.48ZM25.48 30.56V32.4H37.32V30.56H25.48ZM31.4 26.48H29.8V38.32H31.4V26.48ZM35.72 32.4V30.56H23.88V32.4H35.72ZM33 36.48H34.6V24.64H33V36.48ZM28.68 30.56V32.4H40.52V30.56H28.68ZM34.6 26.48H33V38.32H34.6V26.48ZM38.92 32.4V30.56H27.08V32.4H38.92ZM29.8 40.16H31.4V28.32H29.8V40.16ZM25.48 34.24V36.08H37.32V34.24H25.48ZM31.4 30.16H29.8V42H31.4V30.16ZM35.72 36.08V34.24H23.88V36.08H35.72ZM33 40.16H34.6V28.32H33V40.16ZM28.68 34.24V36.08H40.52V34.24H28.68ZM34.6 30.16H33V42H34.6V30.16ZM38.92 36.08V34.24H27.08V36.08H38.92ZM36.2 36.48H37.8V24.64H36.2V36.48ZM31.88 30.56V32.4H43.72V30.56H31.88ZM37.8 26.48H36.2V38.32H37.8V26.48ZM42.12 32.4V30.56H30.28V32.4H42.12ZM36.2 40.16H37.8V28.32H36.2V40.16ZM31.88 34.24V36.08H43.72V34.24H31.88ZM37.8 30.16H36.2V42H37.8V30.16ZM42.12 36.08V34.24H30.28V36.08H42.12ZM29.8 32.8H31.4V20.96H29.8V32.8ZM25.48 26.88V28.72H37.32V26.88H25.48ZM31.4 22.8H29.8V34.64H31.4V22.8ZM35.72 28.72V26.88H23.88V28.72H35.72ZM33 32.8H34.6V20.96H33V32.8ZM28.68 26.88V28.72H40.52V26.88H28.68ZM34.6 22.8H33V34.64H34.6V22.8ZM38.92 28.72V26.88H27.08V28.72H38.92ZM36.2 32.8H37.8V20.96H36.2V32.8ZM31.88 26.88V28.72H43.72V26.88H31.88ZM37.8 22.8H36.2V34.64H37.8V22.8ZM42.12 28.72V26.88H30.28V28.72H42.12ZM29.8 29.12H31.4V17.28H29.8V29.12ZM25.48 23.2V25.04H37.32V23.2H25.48ZM31.4 19.12H29.8V30.96H31.4V19.12ZM35.72 25.04V23.2H23.88V25.04H35.72ZM33 29.12H34.6V17.28H33V29.12ZM28.68 23.2V25.04H40.52V23.2H28.68ZM34.6 19.12H33V30.96H34.6V19.12ZM38.92 25.04V23.2H27.08V25.04H38.92ZM36.2 29.12H37.8V17.28H36.2V29.12ZM31.88 23.2V25.04H43.72V23.2H31.88ZM37.8 19.12H36.2V30.96H37.8V19.12ZM42.12 25.04V23.2H30.28V25.04H42.12ZM36.2 25.44H37.8V13.6H36.2V25.44ZM31.88 19.52V21.36H43.72V19.52H31.88ZM37.8 15.44H36.2V27.28H37.8V15.44ZM42.12 21.36V19.52H30.28V21.36H42.12Z" fill="#36C8C3" mask="url(#path-3-inside-1_14_109)"/>
</svg>
