<svg width="60" height="60" viewBox="0 0 60 60" fill="none" xmlns="http://www.w3.org/2000/svg">
<rect width="60" height="60" rx="12" fill="#EBF5F7"/>
<path d="M26.5864 29.1947C27.1046 29.8876 27.7659 30.4609 28.5252 30.8757C29.2845 31.2906 30.1242 31.5373 30.9872 31.5991C31.8502 31.6609 32.7165 31.5364 33.5272 31.234C34.3379 30.9316 35.074 30.4583 35.6857 29.8464L39.3062 26.226C40.4053 25.0879 41.0135 23.5637 40.9998 21.9816C40.986 20.3995 40.3514 18.8861 39.2327 17.7673C38.1139 16.6486 36.6005 16.014 35.0184 16.0002C33.4363 15.9865 31.912 16.5947 30.774 17.6938L28.6983 19.7575" stroke="#36C8C3" stroke-width="2" stroke-linecap="round" stroke-linejoin="round"/>
<path d="M31.4136 26.7811C30.8953 26.0882 30.2341 25.5149 29.4748 25.1001C28.7155 24.6852 27.8758 24.4386 27.0128 24.3767C26.1498 24.3149 25.2835 24.4395 24.4728 24.7419C23.6621 25.0443 22.926 25.5175 22.3143 26.1294L18.6938 29.7499C17.5947 30.8879 16.9865 32.4121 17.0002 33.9942C17.014 35.5763 17.6486 37.0898 18.7673 38.2085C19.8861 39.3273 21.3995 39.9619 22.9816 39.9756C24.5637 39.9894 26.0879 39.3812 27.226 38.282L29.2896 36.2184" stroke="#36C8C3" stroke-width="2" stroke-linecap="round" stroke-linejoin="round"/>
</svg>
