<svg width="60" height="60" viewBox="0 0 60 60" fill="none" xmlns="http://www.w3.org/2000/svg">
<rect width="60" height="60" rx="12" fill="#EBF5F7"/>
<path d="M29.9995 28.1571L29.9996 28.1571C30.5701 28.1565 31.1169 27.9296 31.5202 27.5262C31.9236 27.1229 32.1505 26.576 32.1511 26.0056V26.0055C32.1511 25.5799 32.0249 25.1639 31.7885 24.8101C31.5521 24.4563 31.2161 24.1805 30.8229 24.0176C30.4297 23.8548 29.9971 23.8122 29.5797 23.8952C29.1624 23.9782 28.779 24.1831 28.4781 24.4841C28.1771 24.785 27.9722 25.1684 27.8892 25.5857C27.8062 26.0031 27.8488 26.4357 28.0116 26.8289C28.1745 27.222 28.4503 27.5581 28.8041 27.7945C29.1579 28.0309 29.5739 28.1571 29.9995 28.1571ZM27.8215 22.7459C28.4662 22.3151 29.2241 22.0852 29.9994 22.0852C31.0388 22.0864 32.0353 22.4998 32.7702 23.2348C33.5052 23.9697 33.9186 24.9661 33.9198 26.0055C33.9198 26.7809 33.6899 27.5388 33.2591 28.1835C32.8284 28.8282 32.2161 29.3307 31.4997 29.6274C30.7834 29.9241 29.9951 30.0018 29.2347 29.8505C28.4742 29.6992 27.7757 29.3258 27.2274 28.7776C26.6791 28.2293 26.3058 27.5308 26.1545 26.7703C26.0032 26.0098 26.0809 25.2216 26.3776 24.5052C26.6743 23.7889 27.1768 23.1766 27.8215 22.7459Z" fill="#36C8C3" stroke="#36C8C3" stroke-width="0.255298"/>
<path d="M29.8926 42.5149L29.9996 42.6791L30.1065 42.5149L37.6279 30.9687C39.9631 27.3838 39.4624 22.5873 36.4372 19.5619C35.5918 18.7165 34.5882 18.0458 33.4836 17.5883C32.379 17.1308 31.1951 16.8953 29.9996 16.8953C28.804 16.8953 27.6201 17.1308 26.5155 17.5883C25.411 18.0458 24.4073 18.7165 23.562 19.5619C20.5367 22.5873 20.0359 27.3838 22.3712 30.9687L29.8926 42.5149ZM30.565 15.1423C33.2494 15.2819 35.7869 16.4108 37.6878 18.3113C39.4511 20.0746 40.5547 22.3904 40.8136 24.8706C41.0725 27.3508 40.471 29.8446 39.1098 31.9341L31.4623 43.674C31.3037 43.9175 31.0869 44.1175 30.8314 44.2559C30.576 44.3944 30.2901 44.4669 29.9995 44.4669C29.709 44.4669 29.4231 44.3944 29.1676 44.2559C28.9122 44.1175 28.6954 43.9175 28.5368 43.674L20.8895 31.9341C19.4226 29.6817 18.842 26.9657 19.2598 24.3104C19.6777 21.6551 21.0643 19.2487 23.152 17.5556C25.2397 15.8625 27.8807 15.0028 30.565 15.1423Z" fill="#36C8C3" stroke="#36C8C3" stroke-width="0.255298"/>
</svg>
