<svg width="60" height="60" viewBox="0 0 60 60" fill="none" xmlns="http://www.w3.org/2000/svg">
<rect width="60" height="60" rx="12" fill="#EBF5F7"/>
<mask id="path-2-inside-1_14_121" fill="white">
<path d="M41.25 20.625H18.75C18.2527 20.625 17.7758 20.8225 17.4242 21.1742C17.0725 21.5258 16.875 22.0027 16.875 22.5V37.5C16.875 37.9973 17.0725 38.4742 17.4242 38.8258C17.7758 39.1775 18.2527 39.375 18.75 39.375H41.25C41.7473 39.375 42.2242 39.1775 42.5758 38.8258C42.9275 38.4742 43.125 37.9973 43.125 37.5V22.5C43.125 22.0027 42.9275 21.5258 42.5758 21.1742C42.2242 20.8225 41.7473 20.625 41.25 20.625ZM39.1875 22.5L30 28.8562L20.8125 22.5H39.1875ZM18.75 37.5V23.3531L29.4656 30.7687C29.6226 30.8776 29.809 30.936 30 30.936C30.191 30.936 30.3774 30.8776 30.5344 30.7687L41.25 23.3531V37.5H18.75Z"/>
</mask>
<path d="M41.25 20.625H18.75C18.2527 20.625 17.7758 20.8225 17.4242 21.1742C17.0725 21.5258 16.875 22.0027 16.875 22.5V37.5C16.875 37.9973 17.0725 38.4742 17.4242 38.8258C17.7758 39.1775 18.2527 39.375 18.75 39.375H41.25C41.7473 39.375 42.2242 39.1775 42.5758 38.8258C42.9275 38.4742 43.125 37.9973 43.125 37.5V22.5C43.125 22.0027 42.9275 21.5258 42.5758 21.1742C42.2242 20.8225 41.7473 20.625 41.25 20.625ZM39.1875 22.5L30 28.8562L20.8125 22.5H39.1875ZM18.75 37.5V23.3531L29.4656 30.7687C29.6226 30.8776 29.809 30.936 30 30.936C30.191 30.936 30.3774 30.8776 30.5344 30.7687L41.25 23.3531V37.5H18.75Z" fill="#36C8C3"/>
<path d="M41.25 20.625V17.85V20.625ZM18.75 20.625V17.85V20.625ZM16.875 22.5H14.1H16.875ZM16.875 37.5H14.1H16.875ZM39.1875 22.5L40.7663 24.7821L48.076 19.725H39.1875V22.5ZM30 28.8562L28.4212 31.1383L30 32.2306L31.5788 31.1383L30 28.8562ZM20.8125 22.5V19.725H11.924L19.2337 24.7821L20.8125 22.5ZM18.75 37.5H15.975V40.275H18.75V37.5ZM18.75 23.3531L20.3291 21.0713L15.975 18.058V23.3531H18.75ZM29.4656 30.7687L31.0474 28.4887L31.0448 28.4869L29.4656 30.7687ZM30 30.936V28.161V30.936ZM30.5344 30.7687L28.9552 28.4869L28.9526 28.4887L30.5344 30.7687ZM41.25 23.3531H44.025V18.058L39.6709 21.0713L41.25 23.3531ZM41.25 37.5V40.275H44.025V37.5H41.25ZM41.25 17.85H18.75V23.4H41.25V17.85ZM18.75 17.85C17.5167 17.85 16.334 18.3399 15.462 19.212L19.3864 23.1364C19.2176 23.3052 18.9887 23.4 18.75 23.4V17.85ZM15.462 19.212C14.5899 20.084 14.1 21.2667 14.1 22.5H19.65C19.65 22.7387 19.5552 22.9676 19.3864 23.1364L15.462 19.212ZM14.1 22.5V37.5H19.65V22.5H14.1ZM14.1 37.5C14.1 38.7333 14.5899 39.916 15.462 40.788L19.3864 36.8636C19.5552 37.0324 19.65 37.2613 19.65 37.5H14.1ZM15.462 40.788C16.334 41.6601 17.5167 42.15 18.75 42.15V36.6C18.9887 36.6 19.2176 36.6948 19.3864 36.8636L15.462 40.788ZM18.75 42.15H41.25V36.6H18.75V42.15ZM41.25 42.15C42.4833 42.15 43.666 41.6601 44.538 40.788L40.6136 36.8636C40.7824 36.6948 41.0113 36.6 41.25 36.6V42.15ZM44.538 40.788C45.4101 39.916 45.9 38.7333 45.9 37.5H40.35C40.35 37.2613 40.4448 37.0324 40.6136 36.8636L44.538 40.788ZM45.9 37.5V22.5H40.35V37.5H45.9ZM45.9 22.5C45.9 21.2667 45.4101 20.084 44.538 19.212L40.6136 23.1364C40.4448 22.9676 40.35 22.7387 40.35 22.5H45.9ZM44.538 19.212C43.666 18.3399 42.4833 17.85 41.25 17.85V23.4C41.0113 23.4 40.7824 23.3052 40.6136 23.1364L44.538 19.212ZM37.6087 20.2179L28.4212 26.5742L31.5788 31.1383L40.7663 24.7821L37.6087 20.2179ZM31.5788 26.5742L22.3913 20.2179L19.2337 24.7821L28.4212 31.1383L31.5788 26.5742ZM20.8125 25.275H39.1875V19.725H20.8125V25.275ZM21.525 37.5V23.3531H15.975V37.5H21.525ZM17.1709 25.635L27.8865 33.0506L31.0448 28.4869L20.3291 21.0713L17.1709 25.635ZM27.8839 33.0488C28.5053 33.4799 29.2436 33.711 30 33.711V28.161C30.3744 28.161 30.7398 28.2753 31.0474 28.4887L27.8839 33.0488ZM30 33.711C30.7564 33.711 31.4947 33.4799 32.1161 33.0488L28.9526 28.4887C29.2602 28.2753 29.6256 28.161 30 28.161V33.711ZM32.1135 33.0506L42.8291 25.635L39.6709 21.0713L28.9552 28.4869L32.1135 33.0506ZM38.475 23.3531V37.5H44.025V23.3531H38.475ZM41.25 34.725H18.75V40.275H41.25V34.725Z" fill="#36C8C3" mask="url(#path-2-inside-1_14_121)"/>
</svg>
